<?xml version="1.0" encoding="UTF-8" standalone="no"?>
<svg
   xmlns:dc="http://purl.org/dc/elements/1.1/"
   xmlns:cc="http://creativecommons.org/ns#"
   xmlns:rdf="http://www.w3.org/1999/02/22-rdf-syntax-ns#"
   xmlns:svg="http://www.w3.org/2000/svg"
   xmlns="http://www.w3.org/2000/svg"
   version="1.1"
   id="svg3468"
   viewBox="0 0 324.00001 378"
   height="106.68mm"
   width="91.440002mm">
  <defs
     id="defs3470" />
  <metadata
     id="metadata3473">
    <rdf:RDF>
      <cc:Work
         rdf:about="">
        <dc:format>image/svg+xml</dc:format>
        <dc:type
           rdf:resource="http://purl.org/dc/dcmitype/StillImage" />
        <dc:title></dc:title>
      </cc:Work>
    </rdf:RDF>
  </metadata>
  <g
     transform="translate(-389.42857,-397.64792)"
     id="layer1">
    <g
       id="g2399"
       transform="translate(-224.28143,108.99792)">
      <path
         id="path2406"
         style="fill:#000000"
         d="m 90,422.5 0,-18.5 12.5,0 12.5,0 0,-21.35 0,-21.36 21,-22.36 21,-22.36 0,-74.56 0,-74.56 L 132.56,148.98 108.11,130.5 108.06,96.75 108,63 l 28.5,0 28.5,0 0,15 0,15 26,0 26,0 0,-15 0,-15 35,0 35,0 0,15 0,15 26,0 26,0 0,-15 0,-15 28.5,0 28.5,0 -0.05,33.75 -0.05,33.75 -24.45,18.5 -24.45,18.5 0,74.7 0,74.69 20.97,22.31 20.97,22.3 0.03,21.25 0.03,21.25 12.5,0 12.5,0 0,18.5 0,18.5 -162,0 -162,0 0,-18.5 z"
         transform="translate(523.71,225.65)" />
      <path
         id="path2392"
         style="fill:#ffffff"
         d="m 387.55,134.55 c 1.35,-1.35 2.45,-3.62 2.45,-5.05 0,-1.42 -1.1,-3.7 -2.45,-5.05 L 385.09,122 252,122 l -133.09,0 -2.46,2.45 c -1.35,1.35 -2.45,3.63 -2.45,5.05 0,1.42 1.1,3.7 2.45,5.05 l 2.46,2.45 133.09,0 133.09,0 2.46,-2.45 z"
         transform="translate(523.71,225.65)" />
      <path
         id="path2390"
         style="fill:#ffffff"
         d="m 337.55,172.55 c 1.35,-1.35 2.45,-3.62 2.45,-5.05 0,-1.42 -1.1,-3.7 -2.45,-5.05 l -2.46,-2.45 -83.09,0 -83.09,0 -2.46,2.45 c -1.35,1.35 -2.45,3.63 -2.45,5.05 0,1.42 1.1,3.7 2.45,5.05 l 2.46,2.45 83.09,0 83.09,0 2.46,-2.45 z"
         transform="translate(523.71,225.65)" />
      <path
         id="path2388"
         style="fill:#ffffff"
         d="m 337.55,321.55 c 1.35,-1.35 2.45,-3.62 2.45,-5.05 0,-1.42 -1.1,-3.7 -2.45,-5.05 l -2.46,-2.45 -83.09,0 -83.09,0 -2.46,2.45 c -1.35,1.35 -2.45,3.63 -2.45,5.05 0,1.43 1.1,3.7 2.45,5.05 l 2.46,2.45 83.09,0 83.09,0 2.46,-2.45 z"
         transform="translate(523.71,225.65)" />
      <path
         id="path2386"
         style="fill:#ffffff"
         d="m 379.09,367.72 c 4.34,-3.34 4.6,-8.07 0.64,-11.75 C 377.66,354.03 375.52,354 252,354 c -123.52,0 -125.66,0.03 -127.73,1.97 -3.96,3.68 -3.7,8.41 0.64,11.75 2.31,1.77 251.87,1.77 254.18,0 z"
         transform="translate(523.71,225.65)" />
      <path
         id="path2384"
         style="fill:#ffffff"
         d="m 379.09,409.72 c 4.34,-3.34 4.6,-8.07 0.64,-11.75 C 377.66,396.03 375.52,396 252,396 c -123.52,0 -125.66,0.03 -127.73,1.97 -3.96,3.68 -3.7,8.41 0.64,11.75 2.31,1.77 251.87,1.77 254.18,0 z"
         transform="translate(523.71,225.65)" />
    </g>
  </g>
</svg>
